<svg xmlns="http://www.w3.org/2000/svg"><symbol id="mecha-stilts" viewBox="0 0 256 256"><path d="M91 127.8H68.9c6.4-25 28.5-44.2 55-45.9zm5.2 0L125.9 86v41.8H96.2zm-25.9 19.6h55.6v22.95H70.3zm59.8 0h9.3v22.95h-9.3zm13.4 0h42.2v22.95h-42.2zm43.6-19.6h-57V81.7a61.4 61.4 0 0 1 57 46.1zm-128.6 4.1h138.9v11.37H58.5z"/><path d="M128 2.1l-109 63v125.8l109 62.9 109-62.9V65.1zm89.1 145.3h-27.3v25a1.9 1.9 0 0 1-2.1 2.1H68.3a2 2 0 0 1-2.1-2.1v-25H38.9a2.1 2.1 0 0 1 0-4.1h15.5v-13.4a2 2 0 0 1 2.1-2.1h8.1a65.5 65.5 0 0 1 63.3-50.2c.2-.2.4-.2.8 0 30.6.2 56 21.7 62.8 50.2h8.1a1.9 1.9 0 0 1 2.1 2.1v13.4h15.5a2.1 2.1 0 1 1 0 4.1z"/></symbol><symbol id="space-bubbles" viewBox="0 0 256 256"><path d="M104 156.6l-34.8 18.3-2.9-4.1 18.1-21.4H98l6 7.2zm11.3 13.6h-28l19.6-10.3 8.4 10.3zm37.4-20.8l-17.2 20.8h-14.9l-17.2-20.8h49.3zm16.1 20.8h-28l8.4-10.3 19.6 10.3zm4.9-55.4a49.8 49.8 0 0 1-2.5 15.6H87.1c-2.1-4.7-2.5-10.3-2.5-15.6a44.5 44.5 0 0 1 89.1 0zM72.9 134.6h112.6v10.7H72.9zM189.8 171l-2.9 3.9-35-18.3 6.2-7.2h13.6l18.1 21.6z"/><path d="M128 2.7L19.5 65.4v125.3L128 253.3l108.5-62.6V65.4zM193.9 172l-4.7 6.8a2.2 2.2 0 0 1-2.7.6l-9.9-5.1H79.3l-9.9 5.1a2.2 2.2 0 0 1-2.7-.6L62 172a2.2 2.2 0 0 1 .2-2.5l17.1-20.2h-8.5a1.9 1.9 0 0 1-2.1-2.1v-14.7a1.9 1.9 0 0 1 2.1-2.1h12a57.5 57.5 0 0 1-2.3-15.6 48.7 48.7 0 0 1 97.3 0 50.5 50.5 0 0 1-2.3 15.6h11.9a1.9 1.9 0 0 1 2.1 2.1v14.8a1.9 1.9 0 0 1-2.1 2.1H177l16.9 20.2a2.2 2.2 0 0 1 0 2.4z"/></symbol><symbol id="super-domes" viewBox="0 0 256 256"><path d="M79.1 157.4h13.3v13.06H79.1zm17.4 0h20.7v13.06H96.5zm24.9 0h13.3v13.06h-13.3zm17.4 0h20.7v13.06h-20.7zm34.8-44.9H82.4C83.4 85.7 103.7 71 128 71s44.6 14.7 45.6 41.5zm-9.9 44.9H177v13.06h-13.3zm-97.1-40.8v36.7h122.8v-36.7zm110.9 26.7H127a2.1 2.1 0 0 1 0-4.1h50.6a2.1 2.1 0 0 1 0 4.1z"/><path d="M128 1.8L18.7 64.9v126.2L128 254.2l109.3-63.1V64.9zm65.5 153.6a2 2 0 0 1-2.1 2.1h-10.3v13.1h10.4a2.1 2.1 0 1 1 0 4.1H64.6a2.1 2.1 0 1 1 0-4.1h10.3v-13.2H64.6a2 2 0 0 1-2.1-2.1v-40.8a2 2 0 0 1 2.1-2.1h13.7c1-29.4 23-45.6 49.7-45.6s48.7 16.2 49.7 45.6h13.7a2 2 0 0 1 2.1 2.1z"/></symbol></svg>